<?xml version="1.0" encoding="utf-8"?>
<!-- Generator: Adobe Illustrator 16.0.0, SVG Export Plug-In . SVG Version: 6.00 Build 0)  -->
<!DOCTYPE svg PUBLIC "-//W3C//DTD SVG 1.1//EN" "http://www.w3.org/Graphics/SVG/1.1/DTD/svg11.dtd" [
	<!ENTITY ns_flows "http://ns.adobe.com/Flows/1.0/">
	<!ENTITY ns_extend "http://ns.adobe.com/Extensibility/1.0/">
	<!ENTITY ns_ai "http://ns.adobe.com/AdobeIllustrator/10.0/">
	<!ENTITY ns_graphs "http://ns.adobe.com/Graphs/1.0/">
]>
<svg version="1.1" id="Layer_1" xmlns:x="&ns_extend;" xmlns:i="&ns_ai;" xmlns:graph="&ns_graphs;"
	 xmlns="http://www.w3.org/2000/svg" xmlns:xlink="http://www.w3.org/1999/xlink" xmlns:a="http://ns.adobe.com/AdobeSVGViewerExtensions/3.0/"
	 x="0px" y="0px" width="864px" height="864px" viewBox="0 0 864 864" enable-background="new 0 0 864 864" xml:space="preserve">
<path fill-rule="evenodd" clip-rule="evenodd" fill="#ED1C24" d="M344.507,605.077c-4.8,12.632-9.069,23.034-12.686,33.658
	c-2.608,7.662-5.238,15.506-6.25,23.474c-1.243,9.777,3.942,13.229,13.627,9.723c14.482-5.245,25.007-15.483,34.362-27.438
	c15.806-20.198,32.108-40.01,48.218-59.969c0.914-1.134,1.792-2.617,3.019-3.106c2.413-0.962,5.059-1.338,7.609-1.956
	c-0.242,2.487,0.414,5.64-0.862,7.358c-15.458,20.828-31.188,41.456-46.878,62.111c-14.806,19.492-29.448,39.113-44.544,58.379
	c-11.325,14.452-22.872,17.895-37.471,12.455c-4.517-1.684-7.129-4.237-5.094-9.175c14.21-34.461,28.504-68.889,42.819-103.308
	C340.542,606.88,341.341,606.737,344.507,605.077z"/>
<g>
	<path fill-rule="evenodd" clip-rule="evenodd" fill="#FFF200" d="M661.855,256.457c7.372,11.056,5.749,19.609,4.463,27.681
		c-2.298,14.421-2.337,14.488,11.924,15.677c11.201,0.934,21.232,4.957,29.584,13.84c-5.229,5.753-10.632,3.474-15.812,2.535
		c-5.413-0.981-10.798-2.568-16.235-2.771c-2.657-0.098-5.408,2.348-8.115,3.642c2.225,2.316,4.157,5.07,6.767,6.809
		c2.069,1.378,4.977,1.481,7.496,2.205c13.836,3.971,25.896,11.349,34.812,22.334c4.419,5.444,6.303,13.373,7.971,20.497
		c1.457,6.224-1.446,11.077-8.053,13.691c-2.374,0.939-3.78,4.324-5.628,6.593c2.373,1.808,4.556,4.769,7.157,5.2
		c6.851,1.135,13.998,0.568,20.798,1.874c3.947,0.758,10.424,3.614,10.582,5.889c0.426,6.099-5.439,6.206-10.279,6.121
		c-1.459-0.026-3.104-0.4-4.34,0.133c-2.778,1.199-5.354,2.867-8.012,4.343c1.873,2.611,3.171,6.354,5.715,7.649
		c16.738,8.52,26.598,22.25,31.536,39.91c0.768,2.747,1.077,5.765,0.879,8.606c-0.359,5.137-2.65,8.415-8.567,6.462
		c-7.414-2.446-14.837-4.869-22.2-7.459c-1.9-0.668-3.495-2.472-5.399-2.817c-10.623-1.932-18.555-5.603-20.077-18.421
		c-0.87-7.325-8.041-11.268-15.345-12.584c-7.895-1.423-10.059-6.531-12.176-13.592c-2.684-8.948-6.688-17.915-12.039-25.528
		c-5.252-7.47-15.971-9.253-22.924-5.664c-1.932,0.999-3.789,3.668-4.061,5.779c-0.159,1.237,2.651,3.717,4.51,4.221
		c14.97,4.056,23.168,16.766,20.752,32.737c-0.175,1.153-0.321,2.317-0.581,3.453c-2.83,12.389-0.743,14.499,12.065,12.168
		c11.903-2.165,18.427,4.475,14.873,15.852c-1.606,5.142-5.287,9.601-7.329,14.651c-1.131,2.798-0.825,6.178-1.166,9.294
		c3.503-0.089,7.938,1.13,10.303-0.556c4.118-2.937,7.484-7.338,10.2-11.724c3.262-5.269,6.25-5.736,11.187-2.188
		c11.515,8.278,22.158,17.146,26.921,31.203c3.028,8.936,1.254,16.651-5.71,23.057c-4.935,4.539-10.27,8.691-14.82,13.58
		c-2.36,2.536-5.346,6.979-4.521,9.316c0.882,2.503,5.875,3.62,9.152,5.179c1.228,0.584,2.676,0.706,4.884,1.252
		c-1.952,10.618-6.539,19.553-15.027,25c-12.201,7.828-25.34,14.197-38.121,21.112c-2.04,1.104-4.59,1.411-6.399,2.763
		c-3.979,2.974-7.638,6.38-11.427,9.61c3.829,3.053,7.553,6.253,11.521,9.114c2.939,2.119,6.196,3.799,9.312,5.675
		c-0.043,0.984-0.087,1.969-0.131,2.953c-6.208,1.06-12.381,2.541-18.634,3.085c-10.154,0.884-20.441,0.535-30.524,1.852
		c-10.654,1.39-11.716,4.763-5.454,13.149c6.325,8.47,5.939,13.518-2.835,19.902c-20.037,14.577-43.232,19.969-67.437,21.089
		c-10.402,0.48-20.897-1.203-31.36-1.722c-3.155-0.155-6.536-0.319-9.474,0.603c-6.922,2.173-7.831,7.108-3.178,12.641
		c2.623,3.117,4.574,6.8,6.828,10.228c-4.637,0.842-9.334,2.637-13.897,2.345c-13.804-0.883-24.319-7.35-30.309-20.277
		c-0.482-1.041-1.316-1.918-1.985-2.874c-8.608-12.285-11.924-12.501-21.856-1.419c-8.339,9.304-17.438,12.048-27.256,8.071
		c-1.535-0.621-2.832-1.826-5.558-3.638c31.171-35.766,73.628-56.604,107.011-88.932c2.643,2.763,3.95,4.897,5.855,5.957
		c3.463,1.925,7.28,3.211,10.95,4.763c0.781-3.683,2.757-7.583,2.132-11.01c-2.307-12.626-1.978-24.927,2.454-36.968
		c1.146-3.111,3.292-5.854,5.306-9.331c6.292,3.993,11.368,8.114,17.144,10.629c5.989,2.607,12.584,4.113,19.065,5.139
		c2.2,0.347,4.865-2.239,7.317-3.484c-1.688-2.075-2.951-5.014-5.133-6.086c-16.516-8.123-29.505-19.728-37.62-36.446
		c-0.764-1.575-1.902-3.077-2.217-4.736c-0.554-2.928-0.606-5.949-0.869-8.933c2.757,0.206,5.511,0.468,8.271,0.608
		c9.539,0.49,19.112,1.542,28.604,1.051c3.013-0.156,5.811-4.463,8.708-6.87c-3.093-1.609-6.075-4.32-9.296-4.644
		c-16.085-1.614-30.51-6.931-43.406-16.776c-10.953-8.362-16.622-19.188-16.987-32.896c-0.076-2.86-0.252-5.718-0.385-8.632
		c-8.244,1.409-13.225,8.022-10.926,17.459c2.132,8.755,6.027,17.462,10.927,25.039c3.834,5.928,7.4,10.984,8.321,18.504
		c1.112,9.076,5.292,17.735,7.363,26.755c0.96,4.184,0.644,8.897-0.149,13.175c-0.672,3.631-3.539,6.845-4.271,10.477
		c-5.279,26.211-22.743,42.947-43.205,58.002c-28.612,21.052-58.955,40.107-82.776,67.027
		c-13.906,15.714-27.056,32.093-40.699,48.043c-6.248,7.303-12.521,14.646-19.384,21.354c-16.993,16.609-38.305,17.922-59.705,13.74
		c-18.426-3.6-26.413-20.354-19.706-42.574c9.245-30.627,20.441-60.67,31.083-90.864c4.552-12.913,9.798-25.581,14.769-38.344
		c0.95-2.439,1.454-5.943,3.276-6.959c3.397-1.893,7.611-2.318,11.486-3.354c0.335,3.01,1.849,6.513,0.827,8.954
		c-12.154,29.042-24.786,57.883-37.057,86.877c-3.739,8.837-6.91,17.927-10.063,26.998c-4.053,11.655-1.225,18.138,9.838,23.486
		c16.817,8.131,39.152,4.104,50.794-10.486c25.452-31.896,50.38-64.214,75.37-96.479c10.709-13.826,20.969-28,31.564-41.918
		c8.557-11.24,19.727-18.765,33.108-23.363c7.687-2.642,14.961-6.468,22.627-9.184c2.663-0.943,5.942-0.15,9.466-0.15
		c2.208-7.647-0.944-13.85-6.68-18.898c-1.421-1.252-4.186-0.977-6.333-1.403c-0.248,1.843-1.013,3.793-0.651,5.507
		c1.423,6.755-2.32,9.891-7.896,11.475c-24.306,6.909-48.348,15.266-73.079,20.013c-23.339,4.48-47.374,6.263-71.182,7.188
		c-50.419,1.959-100.887,3.277-151.34,3.513c-32.925,0.153-65.896-1.479-98.78-3.438c-18.683-1.112-35.765-7.735-49.628-21.223
		c-15.29-14.875-11.371-34.596,9.111-39.409c22.875-5.375,46.225-8.801,69.435-12.666c53.729-8.947,107.061-19.002,157.91-39.788
		c32.039-13.096,64.983-23.972,97.476-35.966c7.194-2.656,11.967-1.006,15.936,5.858c21.64,37.425,63.414,39.763,94.407,19.913
		c32.257-20.659,33.228-59.354-1.573-83.867c-20.708-14.586-43.805-15.541-66.571-5.379c-9.418,4.203-14.601,2.75-21.654-4.353
		c-27.399-27.594-83.734-29.492-108.281,12.212c-11.192,19.014-8.235,42.228,7.239,57.918c4.868,4.936,6.104,8.09-1.568,11.226
		c-38.266,15.638-76.215,32.129-117.425,38.94c-12.253,2.025-18.094-3.236-15.489-15.275c1.64,0.465,3.286,1.396,4.856,1.284
		c3.874-0.274,7.714-1.028,11.567-1.588c-0.614-3.18-0.582-6.674-1.947-9.488c-9.944-20.503-10.336-41.443-3.51-62.822
		c0.617-1.934,1.454-3.816,2.377-5.625c0.36-0.706,1.242-1.145,2.334-2.096c1.762,2.231,3.454,4.373,5.376,6.809
		c7.652-3.297,11.026-9.308,10.515-16.673c-0.901-13.013-2.847-25.951-4.257-38.931c-0.429-3.944-0.529-7.923-0.781-11.885
		c0.761-0.65,1.522-1.3,2.284-1.951c4.785,3.241,9.45,6.683,14.401,9.649c3.246,1.946,8.194,5.393,10.085,4.277
		c3.109-1.835,5.403-6.625,6.148-10.53c1.188-6.228-0.026-12.927,1.257-19.12c6.029-29.096,29.142-49.034,60.9-53.205
		c13.259-1.742,16.127-3.292,20.879-12.54c-7.972-0.862-15.315-1.656-22.659-2.45c-0.24-0.837-0.479-1.674-0.72-2.512
		c5.17-2.726,10.096-6.156,15.555-8.042c14.139-4.885,28.547-5.128,42.898-0.487c2.22,0.718,4.386,1.607,6.625,2.255
		c9.826,2.847,13.766-0.461,12.952-10.674c-0.424-5.316-0.647-10.648-1.089-18.142c5.556,2.355,8.768,4.063,12.184,5.101
		c12.136,3.68,24.289,7.337,36.564,10.502c2.546,0.657,5.75-0.521,8.47-1.409c5.04-1.644,5.436-4.772,2-8.545
		c-1.569-1.723-3.543-3.129-4.875-5.006c-3.659-5.156-1.518-8.954,5.794-9.43c20.72-1.352,39.749,4.46,57.587,14.572
		c6.591,3.736,12.689,8.413,19.481,11.689c2.931,1.414,7.051,0.362,10.632,0.43c-0.101-2.999,0.312-6.131-0.425-8.963
		c-1.018-3.917-3.153-7.535-4.311-11.429c-0.614-2.066-0.994-5.814-0.033-6.389c1.869-1.121,5.005-1.281,7.185-0.551
		c19.629,6.58,35.45,18.691,48.557,34.483c3.534,4.258,6.291,9.186,10.005,13.257c2.651,2.907,5.987,5.743,9.587,7.107
		c6.004,2.277,9.656-1.121,8.768-7.494c-0.602-4.312-2.105-8.528-2.436-12.845c-0.519-6.763,3.499-9.881,9.134-6.288
		c6.748,4.304,13.646,9.426,18.241,15.806c7.088,9.838,12.588,20.886,18.175,31.723c4.952,9.607,10.32,10.447,16.51,1.745
		C657.755,263.396,659.39,260.428,661.855,256.457z M236.384,433.12c-2.206-3.188-4.236-6.262-6.407-9.234
		c-9.354-12.808-7.747-23.064,5.106-32.103c1.667-1.172,3.957-1.897,4.957-3.466c1.138-1.787,2.344-5.306,1.475-6.324
		c-9.734-11.406-4.061-21.013,2.895-30.705c2.256-3.144,4.089-6.592,6.116-9.901c-0.479-0.741-0.959-1.481-1.439-2.221
		c-3.018,0.782-6.477,0.872-8.977,2.465c-10.936,6.968-18.107,16.59-17.821,30.128c0.16,7.571-1.481,13.89-6.146,20.199
		c-8.163,11.042-5.66,30.889,4.147,40.314C224.972,436.771,230.025,438.329,236.384,433.12z"/>
	<path fill-rule="evenodd" clip-rule="evenodd" fill="#FFF200" d="M252.604,643.599c9.656-10.426,9.208-14.037-4.476-20.079
		c-11.034-4.872-19.995-11.812-27.063-21.374c-4.886-6.61-3.677-10.512,4.497-10.928c23.542-1.199,47.125-1.696,70.698-2.144
		c5.829-0.11,8.511,2.918,6.105,9.134c-6.097,15.755-12.075,31.555-17.975,47.383c-2.262,6.066-6.262,8.526-12.778,7.969
		C263.549,652.871,256.585,649.534,252.604,643.599z"/>
</g>
<g>
	<path fill-rule="evenodd" clip-rule="evenodd" fill="#FFFFFF" d="M413.095,414.913c-0.212-1.59-0.381-2.452-0.435-3.322
		c-1.283-20.601,8.737-30.839,29.032-29.681c24.396,1.392,46.211,16.791,52.379,36.974c5.702,18.658,1.607,25.746-17.012,31.741
		c-19.532,6.291-36.718,2.364-51.951-10.729C417.391,433.26,411.579,425.322,413.095,414.913z M453.651,431.18
		c11.145,0.038,17.663-5.176,17.928-14.34c0.288-10.001-7.169-17.345-17.59-17.323c-11.358,0.026-19.05,6.406-18.989,15.753
		C435.064,425.221,442.003,431.14,453.651,431.18z"/>
	<path fill-rule="evenodd" clip-rule="evenodd" fill="#FFFFFF" d="M370.415,372.302c7.646,1.557,15.325,2.965,22.926,4.713
		c6.95,1.598,7.993,5.232,7.044,12.742c-2.406,19.051-13.178,27.097-30.991,29.594c-8.551,1.198-16.755,4.767-25.176,7.041
		c-9.083,2.453-16.797-0.908-23.125-9.723c-5.058-7.049-1.911-13.336,1.984-19.381C332.207,383.118,351.793,373.218,370.415,372.302
		z M359.553,381.863c-11.436-0.022-19.543,6.749-19.705,16.459c-0.154,9.281,9.158,16.525,20.977,16.318
		c8.622-0.15,17.235-8.359,17.288-16.476C378.173,388.555,370.58,381.885,359.553,381.863z"/>
</g>
<g>
	<path fill-rule="evenodd" clip-rule="evenodd" d="M491.946,191.311c3.929-24.749,21.992-14.354,37.193-14.802
		c-1.565-3.027-2.428-5.349-3.82-7.291c-23.041-32.13-43.79-39.821-85.103-29.712c-22.025,5.389-43.513,12.948-65.384,19.021
		c-4.247,1.18-9.144,0.021-13.741-0.058c2.013-4.175,3.288-8.961,6.157-12.427c19.52-23.576,45.438-32.44,75.292-31.79
		c2.038,0.044,4.082,0,6.119-0.099c0.539-0.026,1.063-0.405,2.952-1.178c-3.304-3.88-6.856-7.132-9.264-11.083
		c-4.036-6.625-7.752-13.523-10.721-20.674c-0.971-2.337-0.104-7.497,1.53-8.377c2.468-1.328,7.043-1.179,9.519,0.325
		c23.652,14.358,47.167,28.951,70.475,43.863c13.003,8.32,26.278,16.59,31.037,33.005c0.336,1.16,6.244,2.311,8.166,1.152
		c17.847-10.76,37.11-8.556,56.21-6.411c12.182,1.369,21.216,8.373,28.607,18.267c8.841,11.836,18.705,22.906,27.994,34.415
		c1.166,1.443,2.631,4.351,2.037,5.147c-1.178,1.576-3.675,2.961-5.663,3.012c-13.874,0.353-26.633-3.203-37.079-12.701
		c-7.314-6.65-14.153-13.824-21.155-20.815c-2.891-2.885-5.583-5.969-8.482-8.846c-16.05-15.936-28.704-12.616-42.695,5.323
		c-6.147,7.881-4.93,13.858,2.397,20.819c3.579,3.401,7.849,6.101,11.273,9.635c5.976,6.168,10.754,8.065,20.087,3.618
		c13.831-6.592,27.175,0.515,37.173,10.533c8.134,8.149,14.492,18.188,20.938,27.855c3.398,5.095,6.007,6.446,11.871,3.419
		c11.395-5.881,19.916-2.77,24.582,9.142c2.496,6.369,4.196,13.632,3.878,20.378c-0.441,9.31,3.902,12.708,11.699,15.518
		c8.399,3.027,16.907,6.67,24.152,11.771c11.484,8.085,11.354,12.054,3.67,23.603c-1.199,1.805-0.679,6.01,0.675,7.994
		c2.758,4.042,6.896,7.111,9.981,10.967c6.393,7.989,10.49,16.829,8.146,27.462c-1.669,7.571,1.399,11.003,8.959,12.689
		c18.649,4.16,22.182,13.415,11.376,29.415c-3.245,4.805-2.741,7.743,0.791,12.158c10.722,13.394,18.832,28.135,18.958,45.971
		c0.096,13.538-3.184,17.922-16.33,20.319c-6.127,1.118-5.38,4.239-4.794,8.724c0.991,7.597,4.427,17.314,1.13,22.538
		c-7.721,12.227-8.735,24.88-10.73,38.414c-2.57,17.447-14.965,29.9-29.625,39.433c-5.616,3.651-11.44,7.054-17.444,10.015
		c-5.338,2.632-6.747,5.381-3.325,10.849c7.596,12.134,5.334,20.16-8.181,25.136c-8.005,2.948-16.94,4.191-25.526,4.544
		c-12.776,0.526-11.817,1.115-17.235,11.961c-4.477,8.961-12.255,17.088-20.344,23.261c-17.432,13.304-38.444,17.542-59.876,19.617
		c-3.481,0.336-7.011,0.902-10.465,0.647c-10.256-0.757-17.305,1.884-19.604,13.482c-0.604,3.046-6.068,6.407-9.86,7.333
		c-23.006,5.616-45.048,5.588-63.74-12.442c-2.203-2.124-8.036-3.135-10.645-1.752c-15.171,8.041-30.911,8.12-46.765,4.048
		c-6.679-1.716-10.236-0.021-13.828,5.246c-14.447,21.189-31.168,40.007-54.79,51.542c-17.442,8.519-35.519,10.858-54.38,6.262
		c-25.617-6.242-36.697-25.193-29.919-52.923c3.444-14.092,8.819-27.709,13.214-41.573c3.295-10.39,2.054-10.857-7.807-15.156
		c-10.208-4.451-19.617-10.821-29.092-16.801c-2.247-1.417-4.637-4.55-4.781-7.02c-0.578-9.93-7.935-14.84-13.604-21.43
		c-6.538-7.6-12.188-16.24-16.729-25.186c-3.065-6.039-6.241-8.483-13.074-8.888c-30.224-1.792-60.504-3.431-90.559-6.898
		c-12.452-1.436-24.816-6.34-36.455-11.419c-14.718-6.423-23.604-18.55-26.995-34.428c-2.554-11.958,1.545-24.066,12.798-28.717
		c13.545-5.598,28.027-9.243,42.387-12.472c18.702-4.207,37.702-7.072,56.535-10.713c10.429-2.017,11.208-3.472,9.132-13.392
		c-2.269-10.836-3.887-21.183,7.952-28.62c2.45-1.538,3.212-7.894,2.662-11.729c-3.338-23.212,0.05-45.523,14.039-64.029
		c9.141-12.092,9.042-23.59,6.936-36.644c-0.601-3.717-1.115-7.502-1.102-11.254c0.035-9.462,4.998-14.458,14.441-14.964
		c1.164-0.062,2.383-0.228,3.492,0.023c9.888,2.233,14.461-1.786,17.06-11.606c5.416-20.464,20.544-33.393,37.828-43.941
		c5.994-3.658,12.318-6.225,13.787-14.462c0.464-2.602,3.816-5.02,6.326-6.872c20.167-14.888,42.504-22.66,67.865-20.091
		c5.229,0.529,8.466-1.474,9.065-6.939c0.127-1.159,0.066-2.345,0.266-3.489c3.237-18.511,12.717-23.094,29.146-14.023
		c2.542,1.403,4.871,3.201,7.266,4.863c9.815,6.814,9.479,6.461,16.435-3.158c8.544-11.817,22.064-11.805,34.244-10.219
		c13.979,1.82,27.575,6.665,41.287,10.382C483.99,187.878,487.371,189.539,491.946,191.311z M661.855,256.457
		c-2.466,3.972-4.101,6.94-6.052,9.684c-6.189,8.702-11.558,7.863-16.51-1.745c-5.587-10.837-11.087-21.884-18.175-31.723
		c-4.596-6.38-11.493-11.501-18.241-15.806c-5.635-3.594-9.652-0.476-9.134,6.288c0.33,4.317,1.834,8.533,2.436,12.845
		c0.889,6.374-2.764,9.771-8.768,7.494c-3.6-1.364-6.936-4.2-9.587-7.107c-3.714-4.071-6.471-9-10.005-13.257
		c-13.106-15.792-28.928-27.903-48.557-34.483c-2.18-0.73-5.315-0.569-7.185,0.551c-0.961,0.575-0.581,4.323,0.033,6.389
		c1.157,3.894,3.293,7.511,4.311,11.429c0.736,2.833,0.324,5.965,0.425,8.963c-3.581-0.068-7.701,0.984-10.632-0.43
		c-6.792-3.277-12.891-7.954-19.481-11.689c-17.839-10.112-36.867-15.924-57.587-14.572c-7.312,0.477-9.453,4.274-5.794,9.43
		c1.332,1.876,3.306,3.283,4.875,5.006c3.435,3.773,3.039,6.902-2,8.545c-2.72,0.888-5.924,2.066-8.47,1.409
		c-12.275-3.165-24.428-6.822-36.564-10.502c-3.416-1.037-6.628-2.746-12.184-5.101c0.441,7.494,0.665,12.826,1.089,18.142
		c0.814,10.213-3.126,13.521-12.952,10.674c-2.238-0.648-4.405-1.538-6.625-2.255c-14.352-4.642-28.76-4.398-42.898,0.487
		c-5.459,1.887-10.385,5.316-15.555,8.042c0.241,0.837,0.48,1.674,0.72,2.512c7.344,0.794,14.687,1.587,22.659,2.45
		c-4.751,9.249-7.62,10.798-20.879,12.54c-31.758,4.17-54.871,24.108-60.9,53.205c-1.283,6.192-0.069,12.892-1.257,19.12
		c-0.745,3.904-3.039,8.695-6.148,10.53c-1.891,1.115-6.84-2.331-10.085-4.277c-4.951-2.966-9.616-6.408-14.401-9.649
		c-0.761,0.651-1.522,1.301-2.284,1.951c0.251,3.962,0.352,7.941,0.781,11.885c1.41,12.98,3.356,25.918,4.257,38.931
		c0.511,7.365-2.863,13.375-10.515,16.673c-1.923-2.436-3.615-4.578-5.376-6.809c-1.092,0.951-1.974,1.39-2.334,2.096
		c-0.923,1.81-1.76,3.691-2.377,5.625c-6.826,21.378-6.434,42.319,3.51,62.822c1.366,2.814,1.333,6.309,1.947,9.488
		c-3.853,0.56-7.693,1.313-11.567,1.588c-1.571,0.111-3.217-0.819-4.856-1.284c-2.605,12.039,3.236,17.301,15.489,15.275
		c41.209-6.812,79.159-23.303,117.425-38.94c7.671-3.136,6.436-6.29,1.568-11.226c-15.475-15.69-18.431-38.904-7.239-57.918
		c24.546-41.704,80.881-39.807,108.281-12.212c7.053,7.104,12.236,8.556,21.654,4.353c22.766-10.162,45.863-9.207,66.571,5.379
		c34.801,24.513,33.83,63.208,1.573,83.867c-30.993,19.85-72.768,17.512-94.407-19.913c-3.969-6.864-8.741-8.514-15.936-5.858
		c-32.492,11.995-65.437,22.871-97.476,35.966c-50.849,20.786-104.181,30.841-157.91,39.788c-23.21,3.865-46.56,7.291-69.435,12.666
		c-20.481,4.813-24.4,24.534-9.111,39.409c13.863,13.487,30.945,20.11,49.628,21.223c32.883,1.958,65.854,3.591,98.78,3.438
		c50.453-0.235,100.921-1.554,151.34-3.513c23.808-0.925,47.843-2.707,71.182-7.188c24.731-4.747,48.773-13.104,73.079-20.013
		c5.575-1.584,9.318-4.72,7.896-11.475c-0.361-1.714,0.403-3.664,0.651-5.507c2.147,0.427,4.912,0.151,6.333,1.403
		c5.735,5.049,8.888,11.251,6.68,18.898c-3.523,0-6.803-0.793-9.466,0.15c-7.666,2.716-14.94,6.542-22.627,9.184
		c-13.382,4.599-24.552,12.123-33.108,23.363c-10.595,13.918-20.854,28.092-31.564,41.918c-24.99,32.265-49.918,64.582-75.37,96.479
		c-11.643,14.59-33.978,18.617-50.794,10.486c-11.063-5.349-13.891-11.831-9.838-23.486c3.153-9.071,6.324-18.161,10.063-26.998
		c12.271-28.994,24.903-57.835,37.057-86.877c1.022-2.441-0.492-5.944-0.827-8.954c-3.875,1.035-8.089,1.461-11.486,3.354
		c-1.823,1.016-2.326,4.52-3.276,6.959c-4.971,12.763-10.217,25.431-14.769,38.344c-10.642,30.194-21.838,60.237-31.083,90.864
		c-6.707,22.22,1.28,38.975,19.706,42.574c21.4,4.182,42.712,2.869,59.705-13.74c6.863-6.708,13.136-14.051,19.384-21.354
		c13.643-15.95,26.793-32.329,40.699-48.043c23.821-26.92,54.164-45.976,82.776-67.027c20.462-15.055,37.926-31.791,43.205-58.002
		c0.731-3.632,3.599-6.846,4.271-10.477c0.793-4.277,1.109-8.991,0.149-13.175c-2.071-9.02-6.251-17.679-7.363-26.755
		c-0.921-7.52-4.487-12.576-8.321-18.504c-4.899-7.577-8.795-16.284-10.927-25.039c-2.299-9.437,2.682-16.05,10.926-17.459
		c0.133,2.914,0.309,5.771,0.385,8.632c0.365,13.707,6.034,24.533,16.987,32.896c12.896,9.846,27.321,15.162,43.406,16.776
		c3.221,0.323,6.203,3.034,9.296,4.644c-2.897,2.407-5.695,6.714-8.708,6.87c-9.491,0.491-19.064-0.561-28.604-1.051
		c-2.76-0.141-5.514-0.402-8.271-0.608c0.263,2.983,0.315,6.005,0.869,8.933c0.314,1.659,1.453,3.161,2.217,4.736
		c8.115,16.719,21.104,28.323,37.62,36.446c2.182,1.072,3.444,4.011,5.133,6.086c-2.452,1.245-5.117,3.831-7.317,3.484
		c-6.481-1.025-13.076-2.531-19.065-5.139c-5.775-2.515-10.852-6.636-17.144-10.629c-2.014,3.478-4.16,6.22-5.306,9.331
		c-4.432,12.041-4.761,24.342-2.454,36.968c0.625,3.427-1.351,7.327-2.132,11.01c-3.67-1.552-7.487-2.838-10.95-4.763
		c-1.905-1.06-3.213-3.194-5.855-5.957c-33.383,32.328-75.84,53.166-107.011,88.932c2.726,1.812,4.023,3.017,5.558,3.638
		c9.818,3.977,18.917,1.232,27.256-8.071c9.933-11.082,13.248-10.866,21.856,1.419c0.669,0.956,1.503,1.833,1.985,2.874
		c5.989,12.928,16.505,19.395,30.309,20.277c4.563,0.292,9.261-1.503,13.897-2.345c-2.254-3.428-4.205-7.11-6.828-10.228
		c-4.653-5.532-3.744-10.468,3.178-12.641c2.938-0.922,6.318-0.758,9.474-0.603c10.463,0.519,20.958,2.202,31.36,1.722
		c24.204-1.12,47.399-6.512,67.437-21.089c8.774-6.385,9.16-11.433,2.835-19.902c-6.262-8.387-5.2-11.76,5.454-13.149
		c10.083-1.316,20.37-0.968,30.524-1.852c6.253-0.544,12.426-2.025,18.634-3.085c0.044-0.984,0.088-1.969,0.131-2.953
		c-3.115-1.876-6.372-3.556-9.312-5.675c-3.968-2.861-7.691-6.062-11.521-9.114c3.789-3.23,7.447-6.637,11.427-9.61
		c1.81-1.352,4.359-1.659,6.399-2.763c12.781-6.915,25.92-13.284,38.121-21.112c8.488-5.447,13.075-14.382,15.027-25
		c-2.208-0.546-3.656-0.668-4.884-1.252c-3.277-1.559-8.271-2.676-9.152-5.179c-0.824-2.338,2.161-6.78,4.521-9.316
		c4.551-4.889,9.886-9.041,14.82-13.58c6.964-6.405,8.738-14.121,5.71-23.057c-4.763-14.058-15.406-22.925-26.921-31.203
		c-4.937-3.549-7.925-3.081-11.187,2.188c-2.716,4.386-6.082,8.787-10.2,11.724c-2.364,1.686-6.8,0.467-10.303,0.556
		c0.341-3.116,0.035-6.496,1.166-9.294c2.042-5.051,5.723-9.51,7.329-14.651c3.554-11.377-2.97-18.017-14.873-15.852
		c-12.809,2.331-14.896,0.221-12.065-12.168c0.26-1.136,0.406-2.3,0.581-3.453c2.416-15.971-5.782-28.681-20.752-32.737
		c-1.858-0.504-4.669-2.983-4.51-4.221c0.271-2.111,2.129-4.78,4.061-5.779c6.953-3.589,17.672-1.806,22.924,5.664
		c5.351,7.613,9.355,16.58,12.039,25.528c2.117,7.062,4.281,12.169,12.176,13.592c7.304,1.316,14.475,5.259,15.345,12.584
		c1.522,12.818,9.454,16.489,20.077,18.421c1.904,0.346,3.499,2.149,5.399,2.817c7.363,2.59,14.786,5.013,22.2,7.459
		c5.917,1.953,8.208-1.325,8.567-6.462c0.198-2.842-0.111-5.859-0.879-8.606c-4.938-17.66-14.798-31.391-31.536-39.91
		c-2.544-1.295-3.842-5.038-5.715-7.649c2.658-1.477,5.233-3.145,8.012-4.343c1.236-0.533,2.881-0.159,4.34-0.133
		c4.84,0.085,10.705-0.021,10.279-6.121c-0.158-2.274-6.635-5.131-10.582-5.889c-6.8-1.306-13.947-0.739-20.798-1.874
		c-2.602-0.431-4.784-3.392-7.157-5.2c1.848-2.269,3.254-5.654,5.628-6.593c6.606-2.614,9.51-7.467,8.053-13.691
		c-1.668-7.124-3.552-15.053-7.971-20.497c-8.917-10.985-20.977-18.363-34.812-22.334c-2.52-0.724-5.427-0.826-7.496-2.205
		c-2.609-1.738-4.542-4.492-6.767-6.809c2.707-1.294,5.458-3.74,8.115-3.642c5.438,0.202,10.822,1.79,16.235,2.771
		c5.18,0.938,10.583,3.218,15.812-2.535c-8.352-8.883-18.383-12.907-29.584-13.84c-14.261-1.189-14.222-1.256-11.924-15.677
		C667.604,276.066,669.228,267.512,661.855,256.457z M344.507,605.077c-3.166,1.66-3.965,1.803-4.133,2.207
		c-14.314,34.419-28.608,68.847-42.819,103.308c-2.036,4.938,0.577,7.491,5.094,9.175c14.599,5.439,26.146,1.997,37.471-12.455
		c15.096-19.266,29.738-38.887,44.544-58.379c15.69-20.655,31.419-41.283,46.878-62.111c1.276-1.719,0.62-4.871,0.862-7.358
		c-2.55,0.618-5.196,0.994-7.609,1.956c-1.227,0.489-2.105,1.973-3.019,3.106c-16.11,19.959-32.412,39.771-48.218,59.969
		c-9.355,11.954-19.88,22.192-34.362,27.438c-9.685,3.507-14.87,0.055-13.627-9.723c1.013-7.968,3.643-15.812,6.25-23.474
		C335.438,628.111,339.707,617.709,344.507,605.077z M413.095,414.913c-1.517,10.41,4.295,18.347,12.014,24.982
		c15.233,13.094,32.418,17.021,51.951,10.729c18.619-5.995,22.714-13.083,17.012-31.741c-6.168-20.183-27.982-35.582-52.379-36.974
		c-20.295-1.158-30.315,9.08-29.032,29.681C412.714,412.46,412.883,413.322,413.095,414.913z M252.604,643.599
		c3.98,5.936,10.944,9.272,19.007,9.961c6.517,0.558,10.517-1.902,12.778-7.969c5.9-15.828,11.878-31.628,17.975-47.383
		c2.406-6.216-0.276-9.244-6.105-9.134c-23.573,0.447-47.155,0.944-70.698,2.144c-8.173,0.416-9.383,4.317-4.497,10.928
		c7.068,9.562,16.029,16.502,27.063,21.374C261.812,629.562,262.261,633.173,252.604,643.599z M370.415,372.302
		c-18.622,0.916-38.208,10.815-47.337,24.985c-3.895,6.045-7.042,12.333-1.984,19.381c6.328,8.815,14.042,12.176,23.125,9.723
		c8.42-2.274,16.625-5.843,25.176-7.041c17.813-2.497,28.585-10.542,30.991-29.594c0.949-7.51-0.095-11.144-7.044-12.742
		C385.74,375.268,378.061,373.859,370.415,372.302z"/>
	<path fill-rule="evenodd" clip-rule="evenodd" d="M453.651,431.18c-11.648-0.04-18.587-5.959-18.651-15.91
		c-0.061-9.348,7.631-15.728,18.989-15.753c10.421-0.022,17.878,7.322,17.59,17.323C471.314,426.003,464.796,431.217,453.651,431.18
		z"/>
	<path fill-rule="evenodd" clip-rule="evenodd" d="M359.553,381.863c11.027,0.022,18.62,6.692,18.56,16.302
		c-0.052,8.117-8.666,16.325-17.288,16.476c-11.819,0.207-21.131-7.038-20.977-16.318
		C340.01,388.612,348.117,381.841,359.553,381.863z"/>
	<path fill-rule="evenodd" clip-rule="evenodd" d="M236.384,433.12c-6.359,5.209-11.413,3.651-16.094-0.848
		c-9.807-9.425-12.311-29.272-4.147-40.314c4.665-6.309,6.306-12.628,6.146-20.199c-0.286-13.539,6.885-23.16,17.821-30.128
		c2.5-1.593,5.959-1.683,8.977-2.465c0.48,0.74,0.96,1.48,1.439,2.221c-2.026,3.309-3.859,6.757-6.116,9.901
		c-6.956,9.692-12.628,19.299-2.895,30.705c0.869,1.019-0.337,4.538-1.475,6.324c-1,1.569-3.29,2.294-4.957,3.466
		c-12.853,9.038-14.461,19.294-5.106,32.103C232.148,426.858,234.178,429.933,236.384,433.12z"/>
</g>
</svg>
